<?xml version="1.0" encoding="utf-8"?>
<!-- Generator: Adobe Illustrator 23.0.1, SVG Export Plug-In . SVG Version: 6.00 Build 0)  -->
<svg version="1.1" id="Capa_1" xmlns="http://www.w3.org/2000/svg" xmlns:xlink="http://www.w3.org/1999/xlink" x="0px" y="0px"
	 viewBox="0 0 500 130" style="enable-background:new 0 0 500 130;" xml:space="preserve">
<style type="text/css">
	.st0{fill:#03264C;}
	.st1{fill:#EAC926;}
	.st2{fill:#FFFFFF;stroke:#03264C;stroke-width:3;stroke-miterlimit:10;}
</style>
<g id="g20" transform="translate(329.6772,316.9189)">
	<path id="path22" class="st0" d="M-154.3-254c0-30.9-38.4-56.1-85.8-56.1s-85.8,25.2-85.8,56.1c0,0.8,0,3,0,3.3
		c0,32.8,33.6,59.3,85.8,59.3c52.5,0,85.8-26.6,85.8-59.3L-154.3-254L-154.3-254z"/>
</g>
<g id="g24" transform="translate(325.6143,316.9531)">
	<path id="path26" class="st1" d="M-153.5-254.1c0,29.1-36.9,52.8-82.5,52.8s-82.5-23.6-82.5-52.8c0-29.1,36.9-52.8,82.5-52.8
		C-190.4-306.9-153.5-283.2-153.5-254.1"/>
</g>
<g id="g44" transform="translate(372.3848,355.1846)">
	<path id="path46" class="st0" d="M-162.4-323.2v25.2h-10.1v-23.2c0-11.3,5.7-16.9,16.9-16.9c5.1,0,9,1.1,11.8,3.4
		c2.8-2.2,6.7-3.2,11.8-3.2c11.3,0,16.9,5.6,16.8,16.9v23.2h-5.2c-3.3-0.2-4.9-1.8-4.9-4.9v-20.3c-0.2-4.1-2.5-6.1-6.9-6.1
		c-4.4,0-6.6,2-6.7,6.1v25.1h-10v-25.2c-0.2-4.1-2.5-6.1-6.9-6.1C-160.1-329.4-162.4-327.3-162.4-323.2"/>
</g>
<g id="g48" transform="translate(491.0654,348.9932)">
	<path id="path50" class="st0" d="M-185.2-312c0.3-12.8,6.6-19.9,19.8-19.9h3v10.3l-4.6,0.1c-5.5,0-8.1,3.6-8.1,9.3v20.5h-10.1
		L-185.2-312L-185.2-312z"/>
</g>
<g id="g52" transform="translate(604.4424,344.4316)">
	<path id="path54" class="st0" d="M-206.9-303.8v-3.2c-2.3,1-5,1.4-7.9,2c-4,0.8-6,2.6-6,5.5c0.2,3.1,1.9,4.6,5,4.6
		C-210.3-294.9-206.9-298.2-206.9-303.8 M-220.2-315l-9.2,0c0.4-7.6,4.2-12.7,15.5-12.7c10.9,0,16.4,3.6,16.6,10.9v13.4
		c0,10.9-6.6,15.8-17.2,16.5c-9.5,0.8-16.1-3.7-16.1-12.4c0.2-9.5,7.1-12,17.1-13c4.3-0.5,6.4-1.8,6.4-4c-0.2-2.2-2.3-3.3-6.4-3.4
		C-218.2-319.6-219.7-316.8-220.2-315"/>
</g>
<g id="g56" transform="translate(636.0684,348.5366)">
	<path id="path58" class="st0" d="M-213-311.2c-0.1,8,2.6,12,8.3,12c5.7,0,8.5-4,8.5-12c-0.2-7.6-3-11.4-8.4-11.4
		C-209.9-322.6-212.7-318.8-213-311.2 M-186.4-344v35.6c0,11.9-6.2,17.8-18.5,17.7c-12.2-0.2-18.4-6.9-18.4-20
		c0-13.4,5.2-20.3,15.8-20.7c4.9,0,8.7,2,11.3,6.1v-12.6l0-1.1C-192.9-343.9-186.4-344-186.4-344"/>
</g>
<g id="g60" transform="translate(450.3125,316.3428)">
	<path id="path62" class="st0" d="M-177.4-253h2.6v52.3h-9.9v-45.9C-184.7-248.1-181.6-253-177.4-253"/>
</g>
<g id="g68" transform="translate(467.5215,361.2886)">
	<path id="path70" class="st0" d="M-180.7-334.3c-1.3-1.4-3.2-2.1-5.8-2.1c-1.7,0-3.1,0.3-4.2,0.9c-1.1,0.6-2,1.3-2.7,2.1
		s-1.1,1.7-1.4,2.7s-0.4,1.8-0.5,2.5h17.2C-178.6-330.9-179.4-332.9-180.7-334.3 M-192.6-314c1.6,1.5,3.9,2.3,6.9,2.3
		c2.1,0,4-0.5,5.5-1.6s2.5-2.2,2.8-3.4h9.3c-1.5,4.6-3.8,7.9-6.9,9.9s-6.8,3-11.2,3c-3,0-5.8-0.5-8.2-1.5c-2.4-1-4.5-2.3-6.2-4.1
		c-1.7-1.8-3-3.9-3.9-6.4c-0.9-2.5-1.4-5.2-1.4-8.2c0-2.9,0.5-5.6,1.4-8s2.3-4.6,4-6.4c1.7-1.8,3.8-3.2,6.2-4.3c2.4-1,5.1-1.6,8-1.6
		c3.3,0,6.1,0.6,8.6,1.9c2.4,1.3,4.4,3,6,5.1c1.6,2.1,2.7,4.6,3.4,7.3c0.7,2.7,0.9,5.6,0.7,8.6h-27.8
		C-195.1-318-194.2-315.6-192.6-314"/>
</g>
<g id="g72" transform="translate(546.9404,364.02)">
	<path id="path74" class="st0" d="M-195.9-339.2c-1.7,0-3.1,0.4-4.3,1.2c-1.1,0.8-2.1,1.8-2.8,3c-0.7,1.2-1.2,2.6-1.5,4.1
		c-0.3,1.5-0.4,2.9-0.4,4.4c0,1.4,0.1,2.8,0.4,4.3s0.8,2.8,1.5,4c0.7,1.2,1.6,2.1,2.7,2.9c1.1,0.8,2.6,1.1,4.2,1.1
		c2.6,0,4.5-0.7,5.9-2.1c1.4-1.4,2.2-3.4,2.6-5.8h10.3c-0.7,5.2-2.7,9.1-6,11.8c-3.3,2.7-7.5,4.1-12.7,4.1c-2.9,0-5.6-0.5-8-1.5
		c-2.4-1-4.5-2.3-6.2-4.1c-1.7-1.8-3-3.9-4-6.3s-1.4-5.1-1.4-8c0-3,0.4-5.8,1.3-8.4c0.9-2.6,2.2-4.8,3.9-6.7s3.8-3.4,6.2-4.4
		c2.4-1,5.3-1.6,8.4-1.6c2.3,0,4.5,0.3,6.6,0.9c2.1,0.6,4,1.5,5.7,2.7c1.7,1.2,3,2.8,4.1,4.6c1.1,1.8,1.6,4,1.8,6.5H-188
		C-188.7-337-191.4-339.2-195.9-339.2"/>
</g>
<g id="g76" transform="translate(690.4863,342.9561)">
	<path id="path78" class="st0" d="M-223.4-301.1c0.3,1.5,0.8,2.8,1.5,4c0.7,1.2,1.7,2.1,2.9,2.8s2.7,1,4.5,1c1.8,0,3.3-0.4,4.6-1
		c1.2-0.7,2.2-1.6,2.9-2.8s1.2-2.5,1.5-4c0.3-1.5,0.4-3,0.4-4.5c0-1.5-0.1-3.1-0.4-4.6c-0.3-1.5-0.8-2.8-1.5-4
		c-0.7-1.1-1.7-2.1-2.9-2.8s-2.7-1.1-4.6-1.1c-1.8,0-3.3,0.4-4.5,1.1s-2.2,1.7-2.9,2.8c-0.7,1.1-1.2,2.5-1.5,4s-0.4,3-0.4,4.6
		C-223.9-304.1-223.7-302.6-223.4-301.1 M-233.1-314.1c0.9-2.5,2.3-4.7,4.1-6.5c1.8-1.8,3.9-3.2,6.3-4.1c2.4-1,5.2-1.5,8.3-1.5
		s5.8,0.5,8.3,1.5s4.6,2.4,6.4,4.1c1.8,1.8,3.1,3.9,4.1,6.5s1.4,5.4,1.4,8.5s-0.5,5.9-1.4,8.4s-2.3,4.6-4.1,6.4s-3.9,3.1-6.4,4.1
		c-2.5,1-5.3,1.4-8.3,1.4s-5.8-0.5-8.3-1.4c-2.5-1-4.6-2.3-6.3-4.1s-3.1-3.9-4.1-6.4c-0.9-2.5-1.4-5.3-1.4-8.4
		C-234.6-308.8-234.1-311.6-233.1-314.1"/>
</g>
<path id="path88" class="st0" d="M296.1,72.4h-9.9v-9h9.9V72.4z"/>
<path id="path90" class="st0" d="M296.1,115.6h-9.9V76.9h9.9V115.6z"/>
<g id="g84_1_" transform="translate(606.3789,289.2861)">
	<path id="path86_1_" class="st0" d="M-276.9-204.1c-1.3-1.4-3.2-2.1-5.8-2.1c-1.7,0-3.1,0.3-4.2,0.9c-1.1,0.6-2,1.3-2.7,2.1
		c-0.7,0.8-1.1,1.7-1.4,2.7c-0.3,0.9-0.4,1.8-0.5,2.5h17.2C-274.7-200.7-275.6-202.7-276.9-204.1 M-288.8-183.8
		c1.6,1.5,3.9,2.3,6.9,2.3c2.1,0,4-0.5,5.5-1.6s2.5-2.2,2.8-3.4h9.3c-1.5,4.6-3.8,7.9-6.9,9.9c-3.1,2-6.8,3-11.2,3
		c-3,0-5.8-0.5-8.2-1.4s-4.5-2.3-6.2-4.1c-1.7-1.8-3-3.9-3.9-6.4s-1.4-5.2-1.4-8.2c0-2.9,0.5-5.6,1.4-8s2.3-4.6,4-6.4
		s3.8-3.2,6.2-4.3c2.4-1,5.1-1.6,8-1.6c3.3,0,6.1,0.6,8.6,1.9c2.4,1.3,4.4,3,6,5.1c1.6,2.1,2.7,4.6,3.4,7.3c0.7,2.7,0.9,5.6,0.7,8.6
		h-27.8C-291.3-187.9-290.4-185.4-288.8-183.8"/>
</g>
<g id="g64_1_" transform="translate(513.6289,262.0811)">
	<path id="path66_1_" class="st0" d="M-147.2-154.9c-5.7,0-8.4-4-8.3-12c0.3-7.6,3.1-11.4,8.4-11.4c5.4,0,8.1,3.7,8.4,11.4
		C-138.7-158.9-141.5-154.9-147.2-154.9 M-144.3-187.1c-4.9,0-8.7,2-11.2,6.1v-17.7h-1.1c-4.9,0.1-7.6,2.7-8.8,4.9v-0.3v30.1
		c0,11.9,6.2,17.8,18.5,17.7c12.2-0.2,18.4-6.9,18.4-20C-128.5-179.9-133.8-186.8-144.3-187.1"/>
</g>
<g id="g80_1_" transform="translate(543.9404,276.9932)">
	<path id="path82_1_" class="st0" d="M-153-181.9c0.3-12.8,6.6-19.9,19.8-19.9h3v10.3l-4.6,0.1c-5.5,0-8.1,3.6-8.1,9.3v20.5H-153
		L-153-181.9L-153-181.9z"/>
</g>
<g id="g84_2_" transform="translate(606.3789,289.2861)">
	<path id="path86_2_" class="st0" d="M-165-204.1c-1.3-1.4-3.2-2.1-5.8-2.1c-1.7,0-3.1,0.3-4.2,0.9c-1.1,0.6-2,1.3-2.7,2.1
		s-1.1,1.7-1.4,2.7c-0.3,0.9-0.4,1.8-0.5,2.5h17.2C-162.8-200.7-163.7-202.7-165-204.1 M-176.9-183.8c1.6,1.5,3.9,2.3,6.9,2.3
		c2.1,0,4-0.5,5.5-1.6s2.5-2.2,2.8-3.4h9.3c-1.5,4.6-3.8,7.9-6.9,9.9c-3.1,2-6.8,3-11.2,3c-3,0-5.8-0.5-8.2-1.4
		c-2.4-1-4.5-2.3-6.2-4.1c-1.7-1.8-3-3.9-3.9-6.4s-1.4-5.2-1.4-8.2c0-2.9,0.5-5.6,1.4-8s2.3-4.6,4-6.4s3.8-3.2,6.2-4.3
		c2.4-1,5.1-1.6,8-1.6c3.3,0,6.1,0.6,8.6,1.9c2.4,1.3,4.4,3,6,5.1c1.6,2.1,2.7,4.6,3.4,7.3c0.7,2.7,0.9,5.6,0.7,8.6h-27.8
		C-179.4-187.9-178.5-185.4-176.9-183.8"/>
</g>
<path class="st2" d="M97.5,46.5c0-1.2,0-2.3,0-3.5c0-1.2-0.4-2.3-1.2-3.2c-0.9-1.1-1.8-2.3-2.6-3.4c-1.2-1.7-2.3-3.5-2.9-5.5
	c-0.2-0.8-0.4-1.8-0.4-2.6c0-3.5,0.1-7,0.1-10.4c0-1.4,0.7-2,2.1-2.2c2.3-0.3,4.1,0.7,5.5,2.4c0.7,0.9,1.3,1.9,2,2.8
	c0.4,0.6,0.9,1.2,1.4,1.7c0.5,0.5,0.8,0.4,0.9-0.3c0.1-0.5,0.1-1.1,0.1-1.6c0-0.3,0-0.6,0.1-1c0.2-1.5,0.9-2.1,2.4-2.3
	c0.1,0,0.1,0,0.2,0c1.2-0.3,1.8,0.2,2.4,1.2c1.6,2.9,3,6,4.1,9.1c1,2.8,1.8,5.6,2,8.5c0.1,1.2,0.2,2.4,0.3,3.6
	c0.1,1,0.3,1.1,1.3,1.2c2,0.1,4,0.7,5.8,1.6c1,0.5,1.8,1.4,2.4,2.3c1.2,1.8,2.5,3.6,3.6,5.4c0.5,0.8,0.9,1.7,1.2,2.5
	c0.5,1,1.1,2,2,2.7c1,0.8,1.6,2,1.7,3.3c0.1,0.6-0.1,1.2-0.4,1.7c-1,1.6-2.1,3.2-3.4,4.6c-1,1-2.2,1.5-3.6,1.8
	c-1.6,0.3-3.2,0.6-4.8,0.9c-0.7,0.1-1.3,0.5-1.7,1.1c-0.4,0.7-0.5,1.4-0.1,2c0.2,0.4,0.5,0.8,0.8,1.2c0.4,0.6,0.6,1.3,0.6,2.1
	c0.1,2.4-0.2,4.7-1.1,6.9c-0.5,1.1-0.5,2.3-0.6,3.4c-0.1,1.2-0.3,2.5-0.7,3.6c-0.6,1.6-1.7,2.5-3.3,3c-0.6,0.2-1.3,0.3-1.9,0.6
	c-2.5,0.9-2.5,4-0.9,5.2c0.9,0.7,1.9,1.4,2.8,2.1c1.2,0.8,2.4,1.7,3.6,2.5c0.3,0.2,0.6,0.6,0.8,0.9c0.5,0.7,0.3,1.4-0.4,1.9
	c-0.7,0.5-1.4,0.7-2.2,0.8c-2.6,0.5-5.3,0.7-8,0.4c-1-0.1-1.9-0.4-2.7-0.9c-2.2-1.4-4.4-2.9-6.6-4.3c-0.5-0.4-1-0.8-1.5-1.3
	c-0.7-0.7-1.5-1-2.4-0.7c-0.6,0.2-1.3,0.4-1.9,0.7c-1.6,0.7-3.2,1.2-4.9,1.4c-1.3,0.1-1.6,0.6-0.9,1.8c0.3,0.5,0.6,1,0.9,1.5
	c0.2,0.3,0.3,0.5,0.5,0.8c0.4,0.9,0.3,1.4-0.4,2c-1.1,0.9-2.3,1.2-3.6,1.3c-1.9,0-3.9-0.1-5.8-0.2c-2.6-0.1-5.1-0.3-7.7-0.5
	c-2.9-0.2-5.7-0.4-8.5-1.1c-0.9-0.2-1.7-0.5-2.6-0.9c-1.6-0.7-3.2-1-4.9-1.1c-0.6,0-1.3,0-1.9-0.1c-0.9,0-1.8-0.3-2.6-0.7
	c-2.8-1.6-5.1-3.6-7-6.2c-1-1.3-0.9-1.6,0.1-2.7c0.1-0.1,0.1-0.2,0.2-0.2c0.6-0.5,0.9-1.1,0.6-2c-0.3-0.8-0.1-1.7,0.1-2.5
	c0.2-0.7,0.5-1.3,0.7-2c0.3-0.6,0.8-0.8,1.4-0.5c0.3,0.2,0.6,0.4,0.9,0.7c0.3,0.2,0.5,0.4,0.8,0.5c0.5,0.2,0.8,0.1,0.9-0.4
	c0.1-0.6,0.2-1.2,0.2-1.8c0-1.1-0.1-2.2,0-3.3c0.1-3.6,0.6-7.2,1.5-10.7c0.3-1.2,0.8-2.3,1.6-3.3c3.7-4.4,7.9-8.1,12.6-11.3
	c1.7-1.1,3.7-1.6,5.6-2.1c2.7-0.6,5.5-1,8.2-0.9c3.7,0.1,7.3,1,10.5,2.9c1,0.6,1.4,0.5,2.2-0.2c0.7-0.6,1.4-1.2,2.1-1.8
	c0.6-0.5,1.2-0.9,1.9-1c1-0.2,1.5-0.8,1.6-1.7c0.2-1.3,0.3-2.7,0.4-4C97.5,48,97.4,47.3,97.5,46.5C97.4,46.5,97.4,46.5,97.5,46.5z"
	/>
</svg>
